<svg width="14" height="18" fill="none" xmlns="http://www.w3.org/2000/svg"><path fill-rule="evenodd" clip-rule="evenodd" d="M10 10.25a.75.75 0 01.75.75A3.75 3.75 0 017 14.75a.75.75 0 010-1.5A2.25 2.25 0 009.25 11a.75.75 0 01.75-.75zM7 16.5c3.09 0 5.5-2.402 5.5-5.25 0-1.935-.966-3.946-2.283-5.752C9.107 3.976 7.843 2.728 7 1.968c-.843.76-2.107 2.008-3.217 3.53C2.466 7.304 1.5 9.315 1.5 11.25c0 2.848 2.41 5.25 5.5 5.25zM7 18c3.866 0 7-3.022 7-6.75C14 6.446 9.28 1.945 7.591.49a.896.896 0 00-1.182 0C4.72 1.945 0 6.446 0 11.25 0 14.978 3.134 18 7 18z" fill="#730641"/></svg>