<svg width="20" height="20" fill="none" xmlns="http://www.w3.org/2000/svg"><path fill-rule="evenodd" clip-rule="evenodd" d="M.249 10A9.75 9.75 0 019.999.25a9.75 9.75 0 019.75 9.75 9.75 9.75 0 01-9.75 9.75A9.75 9.75 0 01.249 10zm1.534-.75H3a.75.75 0 110 1.5H1.783a8.213 8.213 0 001.876 4.53l1.45-1.45a.75.75 0 011.061 1.06l-1.45 1.45A8.217 8.217 0 0010 18.25c2.009 0 3.85-.718 5.28-1.91l-1.57-1.57a.75.75 0 111.061-1.06l1.57 1.569a8.213 8.213 0 001.875-4.529H17a.75.75 0 010-1.5h1.215a8.213 8.213 0 00-1.875-4.529l-1.57 1.57a.75.75 0 11-1.06-1.061l1.569-1.57a8.213 8.213 0 00-4.529-1.876V3.44a.75.75 0 01-1.5 0V1.784a8.213 8.213 0 00-4.53 1.875l1.57 1.57A.75.75 0 115.23 6.29L3.66 4.72a8.213 8.213 0 00-1.877 4.53zm10.265-1.64l-.073.746.746-.073v.004l.002.008.002.026.007.091a8.945 8.945 0 01-.015 1.348c-.068.75-.27 1.848-.973 2.55a2.634 2.634 0 01-3.723-3.723c.702-.702 1.8-.905 2.55-.972a8.958 8.958 0 011.439-.009l.026.002.008.001h.004zm-.073.746l.746-.073a.75.75 0 00-.673-.673l-.073.746zm-.726.726a7.16 7.16 0 00-.545.027c-.712.064-1.326.241-1.623.538a1.134 1.134 0 001.603 1.603c.296-.297.474-.91.538-1.623.018-.195.025-.38.027-.545z" fill="#730641"/></svg>