<svg width="20" height="17" fill="none" xmlns="http://www.w3.org/2000/svg"><path fill-rule="evenodd" clip-rule="evenodd" d="M5.409 1.348a3.75 3.75 0 115.304 5.303A3.738 3.738 0 017.94 7.75H3a.75.75 0 110-1.5h4.94c.02 0 .04 0 .06.002a.757.757 0 01.061-.002 2.25 2.25 0 10-1.592-3.842.75.75 0 11-1.06-1.06zm9.06 3.122a3.094 3.094 0 112.271 5.28H13a.75.75 0 010-1.5h3.657a1.594 1.594 0 10-1.127-2.72.75.75 0 11-1.06-1.06zM.25 11a.75.75 0 01.75-.75h8.69a3.242 3.242 0 012.273.952 3.251 3.251 0 01-4.596 4.597.75.75 0 011.06-1.062 1.75 1.75 0 101.238-2.987H1A.75.75 0 01.25 11z" fill="#730641"/></svg>